<svg width="315" height="173" viewBox="0 0 315 173" fill="none" xmlns="http://www.w3.org/2000/svg">
<path d="M154.819 58.7234C158.029 67 153.493 80.8333 142.16 82C154.16 82 168.16 83 174.66 74C185.22 59.3793 257.82 72.723 292.821 66.2236C315.905 61.937 321.903 34.7158 297.32 17.7236C263.32 -5.7768 220.819 -0.27661 191.319 8.72339C161.819 17.7234 145.319 34.2234 154.819 58.7234Z" stroke="#6D4BBF" stroke-width="2"/>
<path d="M196.023 38.001H193.086L192.361 37.7007C191.555 37.4468 190.938 37.061 190.508 36.5435C190.078 36.0259 189.863 35.374 189.863 34.5879C189.863 33.8848 190.02 33.2915 190.332 32.8081C190.645 32.3247 191.089 31.9585 191.665 31.7095C192.246 31.4604 192.932 31.3359 193.723 31.3359H197.305V42H195.459V32.8008H193.723C193.04 32.8008 192.532 32.9668 192.2 33.2988C191.868 33.6309 191.702 34.0898 191.702 34.6758C191.702 35.0762 191.775 35.4204 191.921 35.7085C192.073 35.9917 192.295 36.2114 192.588 36.3677C192.886 36.519 193.254 36.5947 193.694 36.5947H196.023V38.001ZM193.782 37.1807L191.306 42H189.329L191.833 37.1807H193.782ZM204.907 34.0752V42H203.142V34.0752H204.907ZM210.078 34.0752L206.511 38.8433H204.497L204.263 37.2466H205.735L207.874 34.0752H210.078ZM208.013 42L205.625 38.543L207.017 37.5396L210.334 42H208.013ZM216.619 34.0752V35.4814H212.751V34.0752H216.619ZM218.003 34.0752V42H216.238V34.0752H218.003ZM212.319 34.0752H214.062L213.85 37.9937C213.821 38.5747 213.762 39.0874 213.674 39.5317C213.591 39.9712 213.479 40.3496 213.337 40.667C213.196 40.9795 213.022 41.2334 212.817 41.4287C212.612 41.624 212.373 41.7681 212.1 41.8608C211.826 41.9536 211.519 42 211.177 42H210.627L210.62 40.5498L210.898 40.5278C211.079 40.5132 211.235 40.4668 211.367 40.3887C211.499 40.3057 211.611 40.1885 211.704 40.0371C211.802 39.8857 211.88 39.6904 211.938 39.4512C212.002 39.2119 212.051 38.9287 212.085 38.6016C212.124 38.2744 212.153 37.8936 212.173 37.459L212.319 34.0752ZM224.346 40.4106V36.6313C224.346 36.3481 224.294 36.104 224.192 35.8989C224.089 35.6938 223.933 35.5352 223.723 35.4229C223.518 35.3105 223.259 35.2544 222.947 35.2544C222.659 35.2544 222.41 35.3032 222.2 35.4009C221.99 35.4985 221.826 35.6304 221.709 35.7964C221.592 35.9624 221.533 36.1504 221.533 36.3604H219.775C219.775 36.0479 219.851 35.7451 220.002 35.4521C220.154 35.1592 220.374 34.8979 220.662 34.6685C220.95 34.439 221.294 34.2583 221.694 34.1265C222.095 33.9946 222.544 33.9287 223.042 33.9287C223.638 33.9287 224.165 34.0288 224.624 34.229C225.088 34.4292 225.452 34.7319 225.715 35.1372C225.984 35.5376 226.118 36.0405 226.118 36.646V40.1689C226.118 40.5303 226.143 40.855 226.191 41.1431C226.245 41.4263 226.321 41.6729 226.418 41.8828V42H224.609C224.526 41.8096 224.46 41.5679 224.412 41.2749C224.368 40.9771 224.346 40.689 224.346 40.4106ZM224.602 37.1807L224.617 38.272H223.35C223.022 38.272 222.734 38.3037 222.485 38.3672C222.236 38.4258 222.029 38.5137 221.863 38.6309C221.697 38.748 221.572 38.8896 221.489 39.0557C221.406 39.2217 221.365 39.4097 221.365 39.6196C221.365 39.8296 221.414 40.0225 221.511 40.1982C221.609 40.3691 221.75 40.5034 221.936 40.6011C222.126 40.6987 222.356 40.7476 222.625 40.7476C222.986 40.7476 223.301 40.6743 223.569 40.5278C223.843 40.3765 224.058 40.1934 224.214 39.9785C224.37 39.7588 224.453 39.5513 224.463 39.356L225.034 40.1396C224.976 40.3398 224.875 40.5547 224.734 40.7842C224.592 41.0137 224.407 41.2334 224.177 41.4434C223.953 41.6484 223.682 41.8169 223.364 41.9487C223.052 42.0806 222.69 42.1465 222.28 42.1465C221.763 42.1465 221.301 42.0439 220.896 41.8389C220.491 41.6289 220.173 41.3481 219.944 40.9966C219.714 40.6401 219.6 40.2373 219.6 39.7881C219.6 39.3682 219.678 38.9971 219.834 38.6748C219.995 38.3477 220.229 38.0742 220.537 37.8545C220.85 37.6348 221.23 37.4688 221.68 37.3564C222.129 37.2393 222.642 37.1807 223.218 37.1807H224.602ZM231.201 40.7402C231.489 40.7402 231.748 40.6841 231.978 40.5718C232.212 40.4546 232.4 40.2935 232.542 40.0884C232.688 39.8833 232.769 39.6465 232.783 39.3779H234.446C234.436 39.8906 234.285 40.3569 233.992 40.7769C233.699 41.1968 233.311 41.5312 232.827 41.7803C232.344 42.0244 231.809 42.1465 231.223 42.1465C230.618 42.1465 230.09 42.0439 229.641 41.8389C229.192 41.6289 228.818 41.3408 228.521 40.9746C228.223 40.6084 227.998 40.186 227.847 39.7075C227.7 39.229 227.627 38.7163 227.627 38.1694V37.9131C227.627 37.3662 227.7 36.8535 227.847 36.375C227.998 35.8916 228.223 35.4668 228.521 35.1006C228.818 34.7344 229.192 34.4487 229.641 34.2437C230.09 34.0337 230.615 33.9287 231.216 33.9287C231.851 33.9287 232.407 34.0557 232.886 34.3096C233.364 34.5586 233.74 34.9077 234.014 35.3569C234.292 35.8013 234.436 36.3188 234.446 36.9097H232.783C232.769 36.6167 232.695 36.353 232.563 36.1187C232.437 35.8794 232.256 35.689 232.021 35.5474C231.792 35.4058 231.516 35.335 231.194 35.335C230.837 35.335 230.542 35.4082 230.308 35.5547C230.073 35.6963 229.89 35.8916 229.758 36.1406C229.626 36.3848 229.531 36.6606 229.473 36.9683C229.419 37.271 229.392 37.5859 229.392 37.9131V38.1694C229.392 38.4966 229.419 38.814 229.473 39.1216C229.526 39.4292 229.619 39.7051 229.751 39.9492C229.888 40.1885 230.073 40.3813 230.308 40.5278C230.542 40.6694 230.84 40.7402 231.201 40.7402ZM239.038 40.7402C239.326 40.7402 239.585 40.6841 239.814 40.5718C240.049 40.4546 240.237 40.2935 240.378 40.0884C240.525 39.8833 240.605 39.6465 240.62 39.3779H242.283C242.273 39.8906 242.122 40.3569 241.829 40.7769C241.536 41.1968 241.147 41.5312 240.664 41.7803C240.181 42.0244 239.646 42.1465 239.06 42.1465C238.455 42.1465 237.927 42.0439 237.478 41.8389C237.029 41.6289 236.655 41.3408 236.357 40.9746C236.06 40.6084 235.835 40.186 235.684 39.7075C235.537 39.229 235.464 38.7163 235.464 38.1694V37.9131C235.464 37.3662 235.537 36.8535 235.684 36.375C235.835 35.8916 236.06 35.4668 236.357 35.1006C236.655 34.7344 237.029 34.4487 237.478 34.2437C237.927 34.0337 238.452 33.9287 239.053 33.9287C239.688 33.9287 240.244 34.0557 240.723 34.3096C241.201 34.5586 241.577 34.9077 241.851 35.3569C242.129 35.8013 242.273 36.3188 242.283 36.9097H240.62C240.605 36.6167 240.532 36.353 240.4 36.1187C240.273 35.8794 240.093 35.689 239.858 35.5474C239.629 35.4058 239.353 35.335 239.031 35.335C238.674 35.335 238.379 35.4082 238.145 35.5547C237.91 35.6963 237.727 35.8916 237.595 36.1406C237.463 36.3848 237.368 36.6606 237.31 36.9683C237.256 37.271 237.229 37.5859 237.229 37.9131V38.1694C237.229 38.4966 237.256 38.814 237.31 39.1216C237.363 39.4292 237.456 39.7051 237.588 39.9492C237.725 40.1885 237.91 40.3813 238.145 40.5278C238.379 40.6694 238.677 40.7402 239.038 40.7402ZM249.05 37.3857V38.7773H244.949V37.3857H249.05ZM245.461 34.0752V42H243.696V34.0752H245.461ZM250.325 34.0752V42H248.56V34.0752H250.325ZM253.518 36.5947H255.854C256.538 36.5947 257.119 36.7095 257.598 36.939C258.076 37.1685 258.44 37.4883 258.689 37.8984C258.943 38.3037 259.07 38.7676 259.07 39.29C259.07 39.6758 258.999 40.0347 258.857 40.3667C258.716 40.6938 258.506 40.9795 258.228 41.2236C257.954 41.4678 257.617 41.6582 257.217 41.7949C256.821 41.9316 256.367 42 255.854 42H252.346V34.0752H254.119V40.6011H255.854C256.206 40.6011 256.487 40.54 256.697 40.418C256.907 40.2959 257.058 40.1372 257.151 39.9419C257.249 39.7466 257.297 39.5391 257.297 39.3193C257.297 39.0947 257.249 38.8823 257.151 38.6821C257.058 38.4819 256.907 38.3184 256.697 38.1914C256.487 38.0645 256.206 38.001 255.854 38.001H253.518V36.5947ZM262.19 34.0752V42H260.425V34.0752H262.19ZM266.101 39.4219L269.214 34.0752H270.979V42H269.214V36.646L266.101 42H264.336V34.0752H266.101V39.4219ZM268.745 31.0283H270.056C270.056 31.4336 269.958 31.7925 269.763 32.105C269.573 32.4126 269.299 32.6543 268.943 32.8301C268.591 33.0059 268.171 33.0938 267.683 33.0938C266.946 33.0938 266.362 32.9033 265.933 32.5225C265.508 32.1367 265.295 31.6387 265.295 31.0283H266.606C266.606 31.3018 266.687 31.5435 266.848 31.7534C267.014 31.9585 267.292 32.061 267.683 32.061C268.069 32.061 268.342 31.9585 268.503 31.7534C268.665 31.5435 268.745 31.3018 268.745 31.0283ZM272.869 41.1211C272.869 40.8477 272.961 40.6182 273.147 40.4326C273.333 40.2422 273.584 40.147 273.901 40.147C274.224 40.147 274.475 40.2422 274.656 40.4326C274.841 40.6182 274.934 40.8477 274.934 41.1211C274.934 41.3945 274.841 41.624 274.656 41.8096C274.475 41.9951 274.224 42.0879 273.901 42.0879C273.584 42.0879 273.333 41.9951 273.147 41.8096C272.961 41.624 272.869 41.3945 272.869 41.1211ZM272.876 34.8809C272.876 34.6074 272.969 34.3779 273.154 34.1924C273.34 34.002 273.591 33.9067 273.909 33.9067C274.231 33.9067 274.482 34.002 274.663 34.1924C274.849 34.3779 274.941 34.6074 274.941 34.8809C274.941 35.1543 274.849 35.3838 274.663 35.5693C274.482 35.7549 274.231 35.8477 273.909 35.8477C273.591 35.8477 273.34 35.7549 273.154 35.5693C272.969 35.3838 272.876 35.1543 272.876 34.8809ZM280.208 37.6641V37.7886C280.208 38.8188 280.09 39.7588 279.856 40.6084C279.626 41.458 279.326 42.2051 278.955 42.8496C278.589 43.4941 278.191 44.0312 277.761 44.4609C277.336 44.8906 276.929 45.2007 276.538 45.3911L276.179 44.4243C276.462 44.2095 276.743 43.9141 277.021 43.5381C277.305 43.167 277.561 42.7056 277.791 42.1538C278.025 41.6069 278.21 40.9722 278.347 40.2495C278.489 39.5269 278.56 38.7114 278.56 37.8032V37.6494C278.56 36.7412 278.486 35.9258 278.34 35.2031C278.198 34.4756 278.008 33.8408 277.769 33.2988C277.529 32.752 277.271 32.2905 276.992 31.9146C276.714 31.5386 276.443 31.2456 276.179 31.0356L276.538 30.0688C276.929 30.2544 277.336 30.562 277.761 30.9917C278.191 31.4214 278.589 31.9609 278.955 32.6104C279.326 33.2549 279.626 34.002 279.856 34.8516C280.09 35.7012 280.208 36.6387 280.208 37.6641Z" fill="#6D4BBF"/>
<g clip-path="url(#clip0_523_285)">
<path d="M127.675 123.085C121.4 165.459 94.6697 169.709 64.4998 169.798H62.5086C32.2586 169.683 0.888672 164.14 0.888672 115.877C0.888672 108.166 2.95097 100.312 5.78662 93.1583C9.92343 83.0611 15.4005 73.5619 22.0716 64.9143C22.0716 64.9143 7.37778 64.7992 14.5069 54.6615C25.094 39.6098 32.3564 55.2636 32.3564 55.2636C32.3564 55.2636 42.0368 45.0461 61.4063 45.3206C72.9348 45.4729 84.176 48.9244 93.7897 55.2636C93.7897 55.2636 94.9986 39.8932 108.617 48.0299C122.235 56.1667 104.981 62.7982 104.981 62.7982C104.981 62.7982 119.284 79.9925 125.426 100.171C127.658 107.643 128.795 115.514 127.675 123.085Z" fill="white" stroke="#6D4BBF" stroke-width="2" stroke-miterlimit="10"/>
<path d="M54.8227 88.4028C56.6038 88.4028 58.0477 86.9595 58.0477 85.179C58.0477 83.3985 56.6038 81.9551 54.8227 81.9551C53.0415 81.9551 51.5977 83.3985 51.5977 85.179C51.5977 86.9595 53.0415 88.4028 54.8227 88.4028Z" fill="#6D4BBF"/>
<path d="M74.1742 88.4028C75.9553 88.4028 77.3992 86.9595 77.3992 85.179C77.3992 83.3985 75.9553 81.9551 74.1742 81.9551C72.3931 81.9551 70.9492 83.3985 70.9492 85.179C70.9492 86.9595 72.3931 88.4028 74.1742 88.4028Z" fill="#6D4BBF"/>
<path d="M127.675 123.084C121.497 164.76 93.6474 169.32 64.002 169.532C63.762 169.532 63.5308 169.532 63.2908 169.532H62.5797C32.7298 169.258 0.888672 163.387 0.888672 115.877C0.888672 108.166 2.95097 100.312 5.78662 93.1582C4.14212 100.41 15.5647 113.301 28.7296 121.322L52.4905 148.77L60.4907 142.129L64.6598 138.898H65.3087L69.7533 142.598L77.2024 148.796L100.839 121.491C117.826 111.061 125.462 105.492 123.577 94.929C125.844 102.322 128.795 115.514 127.675 123.084Z" fill="#6D4BBF"/>
<path d="M38.632 126.068L64.4106 138.871L52.4991 148.761L28.7383 121.314C31.8832 123.197 35.195 124.788 38.632 126.068V126.068Z" fill="#6D4BBF"/>
<path d="M100.848 121.455L77.2112 148.761L65.3086 138.898L89.505 126.874C93.4391 125.405 97.2349 123.592 100.848 121.455V121.455Z" fill="#6D4BBF"/>
<path d="M64.0022 169.532H63.291C63.531 169.541 63.7621 169.532 64.0022 169.532Z" fill="#6D4BBF"/>
<path d="M44.9789 44.3556C44.3027 42.3496 44.2686 40.184 44.8811 38.1578C45.9033 34.7402 49.3257 30.3398 56.9348 28.932C64.544 27.5243 76.7488 28.144 81.6735 32.0132C87.007 36.21 86.0203 48.8356 86.0203 48.8356C86.0203 48.8356 93.345 49.1455 93.0427 51.5892C92.4472 56.4323 66.3129 63.4003 53.5925 62.2936C40.872 61.1868 36.1341 57.7338 35.5563 54.1037C34.9785 50.4736 36.7297 48.5346 39.112 46.7727C40.8929 45.5978 42.8851 44.7771 44.9789 44.3556V44.3556Z" fill="#6D4BBF"/>
<path d="M62.9886 148.362C62.9886 148.362 59.0952 144.529 57.0507 145.786C56.4462 146.149 55.8328 148.362 55.8773 150C55.9217 151.638 56.3929 154.055 57.5396 154.233C58.6863 154.41 62.9886 152.01 62.9886 152.01L63.1131 152.178C63.169 152.27 63.2473 152.345 63.3406 152.398C63.4339 152.45 63.5392 152.479 63.6464 152.479H65.3265C65.4001 152.479 65.4728 152.462 65.539 152.43C65.6052 152.398 65.6632 152.351 65.7087 152.294L65.9487 151.966C65.9487 151.966 70.2067 154.87 71.3711 154.702C73.469 154.383 73.8512 146.361 71.7356 146.025C70.5267 145.839 66.0287 148.309 66.0287 148.309L65.7621 148.061C65.6871 147.988 65.5983 147.929 65.5007 147.89C65.403 147.85 65.2985 147.83 65.1932 147.831H63.9131C63.7896 147.827 63.6664 147.848 63.5516 147.894C63.4368 147.94 63.3329 148.009 63.2464 148.097L62.9886 148.362Z" fill="white"/>
<path d="M62.8794 92.7014H66.0593C66.1663 92.7038 66.2705 92.7243 66.3613 92.7608C66.4521 92.7974 66.5264 92.8487 66.5766 92.9096C66.6268 92.9705 66.6512 93.0388 66.6473 93.1077C66.6433 93.1766 66.6113 93.2437 66.5543 93.302L65.1263 94.6381C65.0521 94.7039 64.9548 94.7575 64.8422 94.7945C64.7297 94.8314 64.6052 94.8507 64.4789 94.8507C64.3525 94.8507 64.228 94.8314 64.1155 94.7945C64.003 94.7575 63.9056 94.7039 63.8315 94.6381L62.4034 93.2407C62.3634 93.1857 62.3444 93.1253 62.3481 93.0646C62.3518 93.0039 62.3781 92.9446 62.4247 92.8918C62.4713 92.839 62.537 92.7941 62.6161 92.761C62.6952 92.7279 62.7855 92.7074 62.8794 92.7014V92.7014Z" fill="#6D4BBF"/>
<path d="M64.216 139.137L53.62 147.938C53.2655 148.218 52.8171 148.352 52.3662 148.315C51.9153 148.277 51.4958 148.069 51.1933 147.734L28.5436 121.562L28.3125 121.296L38.4462 126.334L64.216 139.137Z" fill="white" stroke="#6D4BBF" stroke-miterlimit="10"/>
<path d="M101.167 121.597L100.803 122.022L78.2863 148.035C77.99 148.381 77.5682 148.595 77.1134 148.632C76.6585 148.668 76.2077 148.524 75.8596 148.23L65.2637 139.438L89.4601 127.388L101.167 121.597Z" fill="white" stroke="#6D4BBF" stroke-miterlimit="10"/>
<path d="M64.5004 159.731C64.903 159.731 65.2293 159.406 65.2293 159.005C65.2293 158.604 64.903 158.279 64.5004 158.279C64.0978 158.279 63.7715 158.604 63.7715 159.005C63.7715 159.406 64.0978 159.731 64.5004 159.731Z" fill="white"/>
<path d="M64.5004 165.017C64.903 165.017 65.2293 164.692 65.2293 164.291C65.2293 163.89 64.903 163.565 64.5004 163.565C64.0978 163.565 63.7715 163.89 63.7715 164.291C63.7715 164.692 64.0978 165.017 64.5004 165.017Z" fill="white"/>
<path d="M51.7522 170.294C51.7522 170.294 35.7961 173.623 33.2449 171.533C30.6937 169.444 31.5382 166.557 34.4894 165.335C41.6985 162.263 51.7522 170.294 51.7522 170.294Z" fill="#6D4BBF"/>
<path d="M78.1445 170.108C78.1445 170.108 94.0917 173.649 96.6518 171.533C99.2119 169.417 98.3586 166.557 95.3985 165.335C88.1893 162.263 78.1445 170.108 78.1445 170.108Z" fill="#6D4BBF"/>
<path d="M44.3922 172.224V151.55C44.3922 149.779 44.7477 146.441 41.2187 146.441C37.6897 146.441 37.583 150.381 37.8942 150.974C37.9667 151.115 38.0778 151.232 38.2146 151.312C38.3514 151.392 38.5082 151.431 38.6667 151.425C38.8251 151.42 38.9787 151.369 39.1095 151.28C39.2403 151.191 39.3429 151.066 39.4053 150.921C39.832 150.222 39.2542 148.123 41.1032 148.123C42.9521 148.123 42.6677 150.009 42.6677 151.346C42.6677 151.771 42.6677 172.224 42.6677 172.224H44.3922Z" fill="white"/>
<path d="M37.2626 147.752C38.4093 146.202 39.1826 144.405 38.8093 144.13C38.4359 143.856 36.6136 144.493 35.4669 146.043C34.3202 147.592 34.1425 149.788 34.5158 150.062C34.8891 150.337 36.1247 149.328 37.2626 147.752Z" fill="white"/>
<path d="M34.9693 148.114C34.3915 146.609 35.6093 143.564 37.796 144.254C39.5739 144.803 41.8939 146.636 41.7339 147.114C41.5739 147.592 39.3072 147.07 39.2539 147.194C39.2005 147.318 41.2184 148.566 40.9161 148.964C40.6139 149.363 38.7116 148.504 38.6316 148.663C38.5516 148.823 39.8405 150.142 39.5205 150.487C39.2005 150.833 35.556 149.593 34.9693 148.114Z" fill="#6D4BBF" stroke="white" stroke-width="0.5" stroke-miterlimit="10"/>
<path d="M38.8189 144.21C38.8189 144.21 37.0944 143.98 35.7343 146.299C34.9535 147.42 34.5775 148.772 34.6676 150.133L32.0809 150.523C32.0532 150.528 32.0248 150.526 31.998 150.518C31.9713 150.509 31.9471 150.494 31.9277 150.474C31.9083 150.453 31.8942 150.429 31.8868 150.402C31.8794 150.375 31.8789 150.346 31.8853 150.319C32.1926 148.575 32.7937 146.896 33.6631 145.352C34.5202 144.182 35.7907 143.378 37.2188 143.103C37.3134 143.082 37.4115 143.084 37.5055 143.107C37.5995 143.13 37.687 143.174 37.7611 143.236L38.8189 144.21Z" fill="white"/>
<path d="M96.5362 148.114C97.1051 146.609 95.8873 143.564 93.7094 144.254C91.9316 144.803 89.6115 146.636 89.7715 147.114C89.9315 147.592 92.1894 147.07 92.2516 147.194C92.3138 147.318 90.2782 148.566 90.5804 148.964C90.8827 149.363 92.785 148.504 92.8739 148.663C92.9627 148.823 91.656 150.142 91.9849 150.487C92.3138 150.833 96.0028 149.593 96.5362 148.114Z" fill="#6D4BBF" stroke="white" stroke-width="0.5" stroke-miterlimit="10"/>
<path d="M92.6777 144.21C92.6777 144.21 94.4111 143.98 95.7712 146.299C96.5527 147.436 96.9255 148.803 96.829 150.178L99.4069 150.567C99.4351 150.574 99.4646 150.574 99.4927 150.566C99.5207 150.558 99.5462 150.543 99.5668 150.523C99.5873 150.502 99.6022 150.477 99.61 150.449C99.6178 150.421 99.6183 150.392 99.6113 150.363C99.2997 148.621 98.6989 146.942 97.8335 145.396C96.9758 144.227 95.7055 143.423 94.2778 143.148C94.1846 143.127 94.0879 143.128 93.9953 143.151C93.9027 143.174 93.8168 143.218 93.7444 143.28L92.6777 144.21Z" fill="white"/>
</g>
<defs>
<clipPath id="clip0_523_285">
<rect width="129" height="144" fill="white" transform="translate(0 28.2236)"/>
</clipPath>
</defs>
</svg>
