<svg width="254" height="67" viewBox="0 0 254 67" fill="none" xmlns="http://www.w3.org/2000/svg">
  <g clip-path="url(#clip0_434_26)">
  <path d="M88.2317 24.729L84.8894 11.4266V25.8413C84.937 26.4853 84.7461 27.1244 84.353 27.6368C84.1749 27.8341 83.9558 27.9899 83.7109 28.0933C83.4661 28.1967 83.2015 28.2452 82.936 28.2353C82.6765 28.2473 82.4176 28.203 82.1769 28.1055C81.9362 28.0081 81.7194 27.8597 81.5414 27.6706C81.1335 27.1626 80.932 26.5195 80.9769 25.8695V9.32058C80.9919 8.40966 81.2366 7.79423 81.7108 7.47428C82.2919 7.13024 82.9616 6.96527 83.636 7H84.9515C85.5242 6.9746 86.097 7.04716 86.6452 7.21456C86.8209 7.28437 86.9812 7.38812 87.1168 7.51988C87.2524 7.65163 87.3608 7.80881 87.4356 7.98244C87.6695 8.56946 87.8582 9.17347 88.0002 9.78921L91.0659 21.2284L94.1033 9.78921C94.2427 9.17278 94.4315 8.56857 94.6679 7.98244C94.7439 7.80671 94.8545 7.64812 94.9933 7.51618C95.132 7.38423 95.2959 7.28164 95.4752 7.21456C96.0234 7.04672 96.5963 6.97415 97.1689 7H98.5014C99.1741 6.96367 99.8425 7.1288 100.421 7.47428C100.895 7.79611 101.138 8.41155 101.138 9.32058V25.8413C101.178 26.4889 100.976 27.1284 100.573 27.6368C100.392 27.8351 100.17 27.9914 99.9226 28.0948C99.6749 28.1982 99.4075 28.2461 99.1393 28.2353C98.88 28.2417 98.6224 28.1914 98.3845 28.0881C98.1466 27.9847 97.9341 27.8307 97.7618 27.6368C97.3567 27.1294 97.1554 26.4892 97.1972 25.8413V11.4266L93.9 24.729C93.6799 25.5929 93.5048 26.2252 93.3693 26.6317C93.2131 27.0576 92.9508 27.4366 92.6072 27.7328C92.1733 28.0853 91.6241 28.2643 91.0659 28.2353C90.6238 28.2419 90.1891 28.1224 89.8125 27.8908C89.4838 27.6876 89.2104 27.4064 89.0165 27.0721C88.8176 26.7175 88.6676 26.3377 88.5704 25.9429C88.4575 25.5872 88.339 25.1694 88.2317 24.729Z" fill="#6D4BBF"/>
  <path d="M119.764 20.3306C119.768 21.4229 119.577 22.5071 119.199 23.532C118.86 24.4746 118.325 25.3348 117.63 26.0558C116.939 26.7643 116.103 27.3151 115.18 27.6706C114.158 28.0584 113.071 28.25 111.978 28.2353C110.894 28.2535 109.817 28.0617 108.806 27.6706C107.882 27.305 107.047 26.7468 106.355 26.0332C105.664 25.3196 105.133 24.4669 104.797 23.532C104.427 22.5078 104.245 21.4251 104.261 20.3363C104.255 19.2329 104.446 18.1373 104.825 17.101C105.167 16.1603 105.706 15.3037 106.406 14.5885C107.098 13.8851 107.934 13.34 108.856 12.9906C109.869 12.603 110.945 12.4114 112.029 12.426C113.122 12.41 114.209 12.6016 115.23 12.9906C116.159 13.3503 117.001 13.9047 117.698 14.6167C118.388 15.3333 118.919 16.1876 119.256 17.1236C119.613 18.1543 119.785 19.24 119.764 20.3306ZM115.863 20.3306C115.943 19.0126 115.573 17.7063 114.813 16.6267C114.482 16.1966 114.053 15.8521 113.562 15.6222C113.071 15.3922 112.532 15.2837 111.99 15.3055C111.278 15.2834 110.576 15.4805 109.98 15.8701C109.376 16.3161 108.918 16.9312 108.664 17.6374C108.336 18.4967 108.177 19.4111 108.196 20.3306C108.178 21.2409 108.337 22.146 108.664 22.9956C108.929 23.6933 109.389 24.2993 109.991 24.7403C110.586 25.1496 111.296 25.361 112.018 25.3444C112.561 25.365 113.101 25.2546 113.592 25.0227C114.083 24.7908 114.512 24.4441 114.841 24.0119C115.587 22.9353 115.947 21.6379 115.863 20.3306Z" fill="#6D4BBF"/>
  <path d="M126.353 14.5772V15.0458C126.947 14.2225 127.719 13.5432 128.611 13.0584C129.485 12.6183 130.455 12.4011 131.434 12.426C132.393 12.4075 133.341 12.6391 134.183 13.0979C134.971 13.5207 135.604 14.1831 135.99 14.9894C136.248 15.4669 136.419 15.9871 136.492 16.5251C136.575 17.2259 136.613 17.9312 136.605 18.6368V25.8695C136.642 26.5082 136.441 27.1378 136.041 27.6368C135.861 27.8326 135.643 27.9889 135.4 28.0959C135.157 28.2029 134.895 28.2581 134.629 28.2581C134.364 28.2581 134.101 28.2029 133.858 28.0959C133.615 27.9889 133.397 27.8326 133.218 27.6368C132.818 27.1441 132.617 26.5199 132.653 25.8865V19.3877C132.698 18.3783 132.504 17.3726 132.089 16.4517C131.733 15.7685 131.022 15.4298 129.96 15.4298C129.304 15.4364 128.667 15.6476 128.137 16.0339C127.558 16.4592 127.121 17.0497 126.883 17.7277C126.641 18.792 126.544 19.8841 126.595 20.9743V25.8469C126.64 26.4883 126.438 27.1226 126.031 27.6198C125.849 27.8098 125.628 27.9585 125.383 28.0559C125.139 28.1533 124.877 28.1971 124.614 28.1845C124.353 28.1919 124.093 28.1405 123.855 28.0339C123.616 27.9274 123.405 27.7685 123.236 27.569C122.836 27.0763 122.635 26.4521 122.672 25.8187V14.6336C122.625 14.0405 122.796 13.4506 123.151 12.9737C123.317 12.7877 123.522 12.6407 123.752 12.5431C123.981 12.4455 124.229 12.3997 124.478 12.409C124.803 12.4035 125.124 12.4875 125.404 12.6518C125.691 12.824 125.921 13.0774 126.065 13.3802C126.259 13.749 126.358 14.1604 126.353 14.5772Z" fill="#6D4BBF"/>
  <path d="M151.289 21.2848H143.667C143.668 22.0958 143.862 22.895 144.232 23.6167C144.528 24.2294 144.993 24.7447 145.572 25.1018C146.151 25.459 146.82 25.6431 147.501 25.6324C147.932 25.639 148.361 25.5838 148.777 25.4686C149.178 25.3574 149.559 25.1841 149.906 24.9548C150.255 24.7311 150.587 24.482 150.899 24.2095C151.204 23.946 151.599 23.5847 152.085 23.1255C152.329 22.9408 152.632 22.8506 152.938 22.8714C153.289 22.8536 153.635 22.9708 153.903 23.1989C154.03 23.3161 154.129 23.46 154.193 23.6201C154.258 23.7802 154.286 23.9526 154.276 24.1248C154.249 24.5642 154.107 24.9887 153.863 25.3557C153.536 25.8819 153.113 26.3416 152.616 26.7108C151.982 27.1828 151.274 27.5454 150.521 27.7836C149.585 28.0827 148.607 28.2276 147.625 28.2127C145.129 28.2127 143.189 27.4994 141.804 26.0728C140.419 24.6462 139.723 22.7227 139.715 20.3024C139.707 19.2159 139.88 18.1357 140.229 17.1066C140.545 16.1681 141.055 15.3064 141.725 14.5772C142.398 13.8604 143.227 13.3079 144.147 12.9624C145.165 12.5743 146.248 12.3827 147.337 12.3977C148.702 12.3606 150.051 12.6922 151.244 13.3576C152.275 13.9406 153.122 14.8013 153.688 15.8419C154.209 16.7949 154.486 17.8615 154.496 18.9473C154.496 19.9241 154.219 20.5621 153.66 20.8501C152.914 21.176 152.102 21.3247 151.289 21.2848ZM143.667 19.0772H150.719C150.712 17.9874 150.332 16.9329 149.64 16.0903C149.324 15.7615 148.942 15.5034 148.518 15.3331C148.095 15.1628 147.64 15.0841 147.185 15.1023C146.737 15.0872 146.292 15.1692 145.88 15.3427C145.468 15.5162 145.098 15.7771 144.796 16.1073C144.107 16.9478 143.71 17.9906 143.667 19.0772Z" fill="#6D4BBF"/>
  <path d="M160.606 28.7152L160.961 27.8513L156.179 15.8024C155.945 15.3277 155.796 14.8155 155.739 14.2892C155.738 13.9632 155.826 13.6432 155.993 13.3632C156.166 13.0791 156.409 12.8439 156.699 12.68C156.982 12.5152 157.303 12.4276 157.63 12.426C157.871 12.414 158.112 12.4589 158.333 12.5569C158.553 12.655 158.748 12.8035 158.9 12.9906C159.239 13.4526 159.493 13.9705 159.651 14.5207L162.943 24.1192L166.059 15.2152C166.25 14.638 166.475 14.0725 166.731 13.5213C166.862 13.1751 167.087 12.8721 167.38 12.6462C167.671 12.4885 167.999 12.4142 168.329 12.4316C168.627 12.4331 168.92 12.515 169.176 12.6688C169.44 12.8164 169.657 13.0356 169.802 13.3011C169.948 13.5576 170.024 13.8476 170.023 14.1424C169.983 14.3231 169.921 14.5772 169.836 14.9103C169.752 15.2434 169.65 15.5765 169.526 15.921L164.445 29.1951C164.109 30.1516 163.68 31.0726 163.163 31.9448C162.758 32.5955 162.185 33.1242 161.503 33.4749C160.63 33.8675 159.676 34.0493 158.72 34.0056C157.85 34.0471 156.98 33.9226 156.157 33.6386C155.889 33.5326 155.662 33.3441 155.509 33.1005C155.356 32.8568 155.284 32.5707 155.304 32.2836C155.292 32.0921 155.323 31.9004 155.393 31.7219C155.463 31.5435 155.572 31.3825 155.711 31.2503C156.052 30.9838 156.481 30.8549 156.913 30.889C157.119 30.8886 157.325 30.9171 157.523 30.9736C157.734 31.0253 157.95 31.0537 158.167 31.0583C158.527 31.0746 158.887 31.007 159.217 30.8607C159.503 30.688 159.739 30.4425 159.9 30.1493C160.171 29.6897 160.407 29.2103 160.606 28.7152Z" fill="#6D4BBF"/>
  </g>
  <g clip-path="url(#clip1_434_26)">
  <path d="M87.1692 38.6793V47.2679H100.401V38.6793C100.325 37.6886 100.624 36.7053 101.239 35.9198C101.516 35.6164 101.858 35.3768 102.239 35.2178C102.62 35.0589 103.031 34.9845 103.445 35C103.861 34.9863 104.275 35.0604 104.659 35.2172C105.044 35.3741 105.39 35.6101 105.676 35.9097C106.245 36.5161 106.531 37.4393 106.534 38.6793V62.2952C106.534 63.5403 106.246 64.4652 105.665 65.0802C105.382 65.3802 105.038 65.6174 104.655 65.776C104.272 65.9346 103.86 66.0109 103.445 66C103.029 66.0175 102.614 65.9431 102.231 65.7822C101.847 65.6213 101.505 65.378 101.229 65.07C100.621 64.2752 100.327 63.2888 100.401 62.2952V52.2177H87.1692V62.2952C87.1692 63.5403 86.8813 64.4652 86.3004 65.0802C86.0127 65.3855 85.6616 65.6258 85.2712 65.7845C84.8808 65.9433 84.4603 66.0168 84.0385 66C83.6233 66.0171 83.2095 65.9425 82.8271 65.7816C82.4447 65.6207 82.1034 65.3776 81.828 65.07C81.2203 64.2752 80.9261 63.2888 81.0003 62.2952V38.6793C80.9237 37.6918 81.2143 36.7105 81.8177 35.9198C82.0954 35.613 82.4389 35.3712 82.8231 35.212C83.2072 35.0529 83.6224 34.9805 84.0385 35C84.4569 34.9845 84.8739 35.0576 85.2613 35.2145C85.6488 35.3714 85.9978 35.6084 86.285 35.9097C86.8573 36.5161 87.152 37.4393 87.1692 38.6793Z" fill="#6D4BBF"/>
  <path d="M127.02 62.8492C125.813 63.8084 124.482 64.6032 123.061 65.2123C121.697 65.753 120.238 66.0207 118.769 66C117.447 66.0279 116.137 65.7366 114.954 65.1513C113.909 64.6333 113.031 63.8357 112.42 62.8492C111.831 61.902 111.523 60.8102 111.531 59.6984C111.498 58.2603 112.022 56.8641 112.996 55.7954C114.073 54.6656 115.487 53.9054 117.031 53.6254C117.391 53.5441 118.28 53.3611 119.699 53.0766C121.098 52.7869 122.337 52.5277 123.349 52.2787C124.362 52.0297 125.462 51.7705 126.65 51.4097C126.583 49.9359 126.279 48.8687 125.75 48.1674C125.22 47.4661 124.12 47.151 122.45 47.151C121.337 47.0865 120.226 47.2906 119.211 47.7456C118.45 48.1756 117.81 48.7871 117.35 49.5243C117.012 50.0641 116.647 50.5865 116.255 51.0895C116.064 51.241 115.844 51.3524 115.608 51.4171C115.372 51.4817 115.125 51.4982 114.882 51.4656C114.277 51.476 113.689 51.26 113.237 50.8608C113.015 50.6732 112.837 50.4391 112.717 50.1755C112.597 49.9119 112.538 49.6253 112.543 49.3362C112.557 48.2949 112.918 47.2872 113.572 46.47C114.439 45.4279 115.576 44.6376 116.862 44.1831C118.64 43.5322 120.528 43.2251 122.424 43.2785C124.907 43.2785 126.86 43.5733 128.279 44.1475C129.605 44.6451 130.684 45.6328 131.286 46.902C131.934 48.4832 132.234 50.1827 132.166 51.8874C132.166 53.1985 132.166 54.3115 132.166 55.2211C132.166 56.1308 132.166 57.1523 132.135 58.2703C132.139 59.3839 132.313 60.4905 132.649 61.5533C132.9 62.2646 133.072 63.0007 133.163 63.7487C133.156 64.0447 133.085 64.3358 132.955 64.6023C132.824 64.8688 132.638 65.1046 132.407 65.2936C131.895 65.7528 131.227 66.0049 130.536 66C129.875 65.967 129.254 65.6765 128.809 65.192C128.119 64.4853 127.518 63.6987 127.02 62.8492ZM126.65 54.7739C125.472 55.1673 124.27 55.4847 123.051 55.7243C121.471 56.0631 120.378 56.3087 119.771 56.4611C119.124 56.6267 118.524 56.9342 118.013 57.3607C117.737 57.5955 117.518 57.8898 117.375 58.221C117.231 58.5523 117.167 58.9116 117.186 59.2715C117.182 59.6794 117.268 60.0832 117.438 60.4552C117.607 60.8272 117.856 61.1584 118.167 61.4262C118.873 62.0441 119.796 62.3634 120.738 62.3156C121.81 62.3244 122.868 62.0768 123.822 61.5939C124.677 61.1797 125.392 60.5281 125.878 59.7187C126.386 58.8751 126.641 57.486 126.644 55.5515L126.65 54.7739Z" fill="#6D4BBF"/>
  <path d="M156.701 55.0585V62.4833C156.774 63.4311 156.486 64.3717 155.894 65.1208C155.626 65.4115 155.296 65.6407 154.928 65.7926C154.561 65.9444 154.164 66.0152 153.766 66C153.375 66.013 152.986 65.941 152.626 65.789C152.266 65.6371 151.945 65.409 151.684 65.1208C151.109 64.3644 150.835 63.4261 150.913 62.4833V53.5847C150.928 52.4936 150.878 51.4025 150.764 50.317C150.704 49.617 150.431 48.9511 149.982 48.4062C149.718 48.1373 149.396 47.9305 149.04 47.8012C148.684 47.6719 148.304 47.6233 147.926 47.6592C146.082 47.6592 144.866 48.2859 144.276 49.5395C143.687 50.793 143.394 52.5921 143.397 54.9365V62.4833C143.466 63.4259 143.182 64.3607 142.6 65.1106C142.339 65.4021 142.017 65.6329 141.655 65.7866C141.293 65.9403 140.902 66.0132 140.508 66C140.113 66.0116 139.721 65.938 139.358 65.7844C138.995 65.6308 138.67 65.4009 138.406 65.1106C137.81 64.3668 137.519 63.4293 137.588 62.4833V46.5106C137.528 45.6522 137.789 44.8017 138.323 44.1221C138.564 43.8526 138.862 43.6393 139.197 43.4978C139.531 43.3563 139.893 43.2901 140.256 43.3039C140.615 43.294 140.972 43.3565 141.305 43.4876C141.638 43.6187 141.941 43.8156 142.194 44.0662C142.46 44.3492 142.666 44.6821 142.8 45.0453C142.933 45.4085 142.991 45.7945 142.971 46.1803V46.6885C143.827 45.6348 144.897 44.7694 146.112 44.1475C147.27 43.5904 148.545 43.3101 149.833 43.3293C151.104 43.302 152.36 43.5958 153.483 44.1831C154.544 44.7842 155.416 45.6636 156.002 46.7241C156.841 45.6751 157.892 44.8098 159.087 44.1831C160.201 43.6254 161.436 43.3413 162.685 43.3547C164.072 43.3189 165.445 43.6283 166.679 44.2543C167.769 44.8272 168.645 45.7302 169.178 46.8308C169.661 47.8472 169.903 49.4277 169.903 51.5926V62.4833C169.975 63.4311 169.687 64.3717 169.096 65.1208C168.821 65.4003 168.492 65.6225 168.128 65.7743C167.765 65.926 167.375 66.0042 166.98 66.0042C166.586 66.0042 166.195 65.926 165.832 65.7743C165.469 65.6225 165.14 65.4003 164.865 65.1208C164.271 64.3762 163.981 63.4388 164.053 62.4934V53.0969C164.065 52.1339 164.012 51.1713 163.893 50.2154C163.812 49.536 163.519 48.8983 163.055 48.391C162.784 48.1324 162.461 47.9335 162.106 47.8074C161.752 47.6813 161.375 47.6307 160.999 47.6592C160.243 47.661 159.505 47.8877 158.881 48.3097C158.219 48.7508 157.687 49.3575 157.339 50.068C156.907 51.0082 156.701 52.6751 156.701 55.0585Z" fill="#6D4BBF"/>
  <path d="M193.582 58.6972C193.621 60.1006 193.224 61.4822 192.445 62.6561C191.61 63.8086 190.436 64.6797 189.083 65.1513C187.348 65.7579 185.515 66.0456 183.675 66C181.893 66.0427 180.12 65.7299 178.463 65.0802C177.206 64.6067 176.099 63.8123 175.255 62.778C174.617 61.99 174.256 61.0176 174.227 60.0084C174.222 59.7149 174.279 59.4236 174.393 59.1527C174.507 58.8817 174.676 58.6367 174.89 58.433C175.109 58.2162 175.371 58.0462 175.659 57.9335C175.947 57.8207 176.256 57.7676 176.566 57.7774C177.059 57.7433 177.547 57.8979 177.928 58.2093C178.293 58.5527 178.598 58.9527 178.833 59.3934C179.328 60.2973 180.043 61.0643 180.915 61.6244C181.925 62.1624 183.064 62.4172 184.21 62.3613C185.194 62.4021 186.168 62.1412 186.996 61.6143C187.307 61.4418 187.569 61.1952 187.758 60.8969C187.948 60.5987 188.059 60.2582 188.081 59.9067C188.11 59.4809 188.021 59.0553 187.822 58.6762C187.624 58.2972 187.324 57.9792 186.955 57.7571C185.784 57.1577 184.532 56.7248 183.238 56.4713C181.618 56.0903 180.031 55.5805 178.494 54.9467C177.38 54.4995 176.386 53.8038 175.589 52.9139C174.835 52.0262 174.437 50.8963 174.468 49.7377C174.477 48.602 174.836 47.4958 175.497 46.5666C176.246 45.512 177.281 44.6877 178.483 44.1882C179.989 43.5575 181.614 43.2542 183.249 43.2989C184.577 43.2823 185.902 43.4325 187.192 43.7461C188.222 43.99 189.207 44.3967 190.106 44.9505C190.809 45.384 191.414 45.9547 191.885 46.6275C192.263 47.1549 192.476 47.7805 192.497 48.4266C192.508 48.72 192.455 49.0123 192.342 49.2839C192.23 49.5556 192.06 49.8004 191.844 50.002C191.333 50.4396 190.668 50.6605 189.993 50.6169C189.454 50.6282 188.929 50.4479 188.513 50.1087C187.997 49.6693 187.53 49.177 187.12 48.64C186.709 48.1078 186.195 47.662 185.608 47.3289C184.879 46.9633 184.066 46.7883 183.249 46.8207C182.357 46.7877 181.476 47.01 180.709 47.461C180.409 47.6143 180.156 47.8438 179.975 48.1261C179.794 48.4083 179.693 48.7331 179.681 49.0669C179.678 49.3491 179.745 49.6277 179.874 49.8791C180.004 50.1304 180.194 50.3469 180.426 50.5102C181.033 50.9372 181.712 51.2523 182.431 51.4402C183.274 51.6841 184.433 51.9839 185.906 52.3397C187.396 52.6694 188.838 53.1815 190.199 53.8643C191.193 54.3509 192.057 55.061 192.723 55.9377C193.3 56.7431 193.601 57.7103 193.582 58.6972Z" fill="#6D4BBF"/>
  <path d="M198.672 43.7918H199.294V40.4377C199.294 39.5382 199.294 38.8318 199.366 38.3236C199.397 37.859 199.535 37.4074 199.767 37.0023C199.995 36.6147 200.323 36.2939 200.718 36.0723C201.139 35.8322 201.619 35.7092 202.106 35.7166C202.835 35.7239 203.533 36.0141 204.049 36.5246C204.428 36.8676 204.686 37.3219 204.784 37.8205C204.903 38.541 204.955 39.2708 204.938 40.0007V43.7918H206.995C207.655 43.7452 208.308 43.9467 208.825 44.3559C209.03 44.5352 209.193 44.757 209.303 45.0055C209.412 45.254 209.465 45.5232 209.457 45.7941C209.484 46.1155 209.412 46.4376 209.252 46.7184C209.092 46.9993 208.85 47.2261 208.557 47.3695C207.746 47.7099 206.867 47.8645 205.987 47.8218H204.959V58.0874C204.948 58.7662 204.979 59.445 205.051 60.1202C205.097 60.5453 205.277 60.9454 205.565 61.2636C205.74 61.4249 205.947 61.5477 206.173 61.6239C206.399 61.7001 206.639 61.728 206.876 61.7057C207.33 61.6894 207.781 61.6315 208.223 61.5329C208.657 61.4321 209.099 61.3726 209.544 61.3551C209.777 61.358 210.006 61.4077 210.218 61.5012C210.43 61.5947 210.621 61.73 210.778 61.8989C210.957 62.0738 211.097 62.2831 211.191 62.5139C211.285 62.7446 211.33 62.9919 211.323 63.2405C211.323 64.1383 210.828 64.8261 209.837 65.3038C208.467 65.8459 206.993 66.0836 205.519 66C203.751 66 202.412 65.7069 201.504 65.1208C200.615 64.5654 199.975 63.6943 199.715 62.6866C199.398 61.3257 199.256 59.9306 199.294 58.5346V47.8218H198.548C197.87 47.873 197.198 47.6677 196.667 47.2475C196.458 47.0673 196.292 46.8435 196.18 46.5921C196.069 46.3408 196.016 46.0683 196.024 45.7941C196.017 45.5193 196.074 45.2467 196.191 44.9973C196.308 44.7478 196.481 44.5284 196.698 44.3559C197.266 43.9393 197.967 43.739 198.672 43.7918Z" fill="#6D4BBF"/>
  <path d="M229.12 56.019H218.072C218.061 57.1817 218.327 58.3307 218.848 59.3731C219.274 60.2616 219.95 61.0099 220.796 61.5281C221.641 62.0464 222.619 62.3128 223.614 62.2952C224.239 62.3032 224.862 62.2246 225.464 62.0615C226.04 61.8975 226.588 61.6491 227.089 61.3246C227.599 61.0035 228.083 60.645 228.539 60.2523C228.981 59.8728 229.553 59.3545 230.256 58.6972C230.611 58.4324 231.051 58.3025 231.495 58.3313C232.007 58.3081 232.509 58.4749 232.903 58.7988C233.087 58.9677 233.23 59.1747 233.324 59.4049C233.417 59.635 233.458 59.8828 233.443 60.1303C233.401 60.7615 233.194 61.3711 232.841 61.8988C232.368 62.6534 231.754 63.3122 231.032 63.8402C230.111 64.513 229.082 65.0284 227.989 65.3647C226.631 65.8009 225.211 66.0154 223.783 66C220.154 66 217.334 64.9836 215.322 62.9508C213.31 60.918 212.303 58.145 212.299 54.6316C212.289 53.0767 212.54 51.5309 213.045 50.0579C213.506 48.7119 214.247 47.476 215.219 46.4293C216.199 45.4025 217.401 44.6085 218.735 44.1069C220.213 43.5558 221.782 43.2818 223.362 43.2988C225.348 43.2337 227.315 43.7027 229.053 44.6557C230.55 45.4876 231.78 46.7207 232.6 48.2131C233.362 49.5785 233.769 51.1103 233.782 52.67C233.782 54.0794 233.374 54.9891 232.559 55.399C231.477 55.8684 230.299 56.0807 229.12 56.019ZM218.072 52.8529H228.312C228.175 50.9421 227.661 49.5141 226.77 48.5688C226.312 48.0947 225.757 47.7225 225.142 47.4771C224.526 47.2318 223.865 47.1188 223.203 47.1459C222.554 47.1261 221.909 47.2448 221.311 47.4939C220.713 47.743 220.176 48.1165 219.738 48.5892C218.812 49.5497 218.257 50.9675 218.072 52.8529Z" fill="#6D4BBF"/>
  <path d="M244.136 57.94V62.6053C244.203 63.5228 243.914 64.4312 243.328 65.1462C243.066 65.424 242.747 65.6434 242.393 65.7897C242.038 65.9361 241.656 66.006 241.272 65.9949C240.895 66.0044 240.52 65.9325 240.174 65.7842C239.828 65.6358 239.518 65.4147 239.267 65.1361C238.693 64.416 238.413 63.5095 238.481 62.5951V47.0646C238.481 44.5541 239.398 43.3006 241.231 43.3039C241.617 43.2688 242.006 43.331 242.361 43.4848C242.716 43.6386 243.026 43.8788 243.262 44.1831C243.737 44.9665 243.979 45.8666 243.961 46.78C244.492 45.8054 245.188 44.9272 246.017 44.1831C246.827 43.562 247.836 43.2499 248.86 43.3039C250.068 43.3073 251.255 43.6095 252.314 44.1831C253.428 44.7659 253.987 45.5417 253.99 46.5107C254.003 46.8278 253.947 47.144 253.826 47.4377C253.704 47.7315 253.52 47.996 253.286 48.2131C252.881 48.6274 252.327 48.8666 251.744 48.8789C251.233 48.8065 250.731 48.6805 250.248 48.5028C249.571 48.2696 248.862 48.141 248.145 48.1216C247.414 48.0897 246.695 48.3188 246.12 48.7671C245.541 49.2789 245.119 49.9409 244.901 50.6779C244.581 51.6554 244.379 52.667 244.3 53.6915C244.187 54.8451 244.136 56.263 244.136 57.94Z" fill="#6D4BBF"/>
  </g>
  <g clip-path="url(#clip2_434_26)">
  <path d="M59.3846 44.1366C56.4656 63.8527 44.0331 65.83 30.0006 65.8712H29.0745C15.0047 65.8177 0.414062 63.2389 0.414062 40.7833C0.414062 37.1952 1.37327 33.5412 2.69218 30.2126C4.61628 25.5146 7.16377 21.0948 10.2666 17.0713C10.2666 17.0713 3.43225 17.0178 6.74813 12.3009C11.6723 5.2977 15.0502 12.581 15.0502 12.581C15.0502 12.581 19.5527 7.82709 28.5618 7.9548C33.9239 8.02567 39.1523 9.63158 43.6238 12.581C43.6238 12.581 44.1861 5.42953 50.5202 9.21537C56.8543 13.0012 48.8292 16.0867 48.8292 16.0867C48.8292 16.0867 55.4816 24.0869 58.3385 33.4753C59.3763 36.9522 59.9055 40.6144 59.3846 44.1366Z" fill="white" stroke="#6D4BBF" stroke-width="2" stroke-miterlimit="10"/>
  <path d="M25.5 28C26.3284 28 27 27.3284 27 26.5C27 25.6716 26.3284 25 25.5 25C24.6716 25 24 25.6716 24 26.5C24 27.3284 24.6716 28 25.5 28Z" fill="#6D4BBF"/>
  <path d="M34.5 28C35.3284 28 36 27.3284 36 26.5C36 25.6716 35.3284 25 34.5 25C33.6716 25 33 25.6716 33 26.5C33 27.3284 33.6716 28 34.5 28Z" fill="#6D4BBF"/>
  <path d="M59.3846 44.1366C56.5111 63.5272 43.5577 65.6488 29.7691 65.7477C29.6574 65.7477 29.5499 65.7477 29.4383 65.7477H29.1076C15.2239 65.62 0.414062 62.8887 0.414062 40.7833C0.414062 37.1952 1.37327 33.5412 2.69218 30.2126C1.92729 33.5865 7.24014 39.5845 13.3633 43.3168L24.4149 56.0874L28.136 52.9977L30.075 51.4941H30.3769L32.4441 53.2161L35.9088 56.0997L46.9025 43.3951C54.8035 38.5423 58.3551 35.9511 57.4786 31.0365C58.5329 34.4763 59.9055 40.6144 59.3846 44.1366Z" fill="#6D4BBF"/>
  <path d="M17.9689 45.5249L29.959 51.4817L24.4187 56.0832L13.3672 43.3127C14.8299 44.1888 16.3703 44.9293 17.9689 45.5249Z" fill="#6D4BBF"/>
  <path d="M46.9067 43.3786L35.9131 56.0833L30.377 51.4941L41.6311 45.8998C43.4609 45.2163 45.2264 44.3726 46.9067 43.3786Z" fill="#6D4BBF"/>
  <path d="M29.7683 65.7477H29.4375C29.5491 65.7518 29.6566 65.7477 29.7683 65.7477Z" fill="#6D4BBF"/>
  <path d="M20.9205 7.50578C20.606 6.57244 20.5902 5.56483 20.8751 4.62211C21.3505 3.03197 22.9423 0.984565 26.4814 0.32956C30.0206 -0.325445 35.6973 -0.0370777 37.9878 1.76316C40.4685 3.71581 40.0096 9.59026 40.0096 9.59026C40.0096 9.59026 43.4164 9.73444 43.2758 10.8714C42.9988 13.1248 30.8434 16.3669 24.9269 15.8519C19.0104 15.337 16.8067 13.7304 16.538 12.0414C16.2692 10.3524 17.0837 9.45019 18.1918 8.63041C19.0201 8.08378 19.9467 7.70189 20.9205 7.50578Z" fill="#6D4BBF"/>
  <path d="M29.2969 55.8979C29.2969 55.8979 27.486 54.1141 26.5351 54.6991C26.2539 54.868 25.9687 55.8979 25.9893 56.66C26.01 57.4221 26.2291 58.5467 26.7625 58.6291C27.2958 58.7115 29.2969 57.5951 29.2969 57.5951L29.3548 57.6734C29.3808 57.7158 29.4172 57.7509 29.4607 57.7754C29.5041 57.7999 29.553 57.813 29.6029 57.8134H30.3843C30.4186 57.8133 30.4524 57.8054 30.4832 57.7905C30.5139 57.7755 30.5409 57.7538 30.5621 57.7269L30.6737 57.5745C30.6737 57.5745 32.6542 58.9257 33.1958 58.8474C34.1715 58.6991 34.3493 54.9668 33.3653 54.8103C32.803 54.7238 30.7109 55.8731 30.7109 55.8731L30.5869 55.7578C30.5521 55.7235 30.5107 55.6963 30.4653 55.6779C30.4199 55.6596 30.3713 55.6503 30.3223 55.6507H29.7269C29.6695 55.6487 29.6122 55.6586 29.5588 55.6799C29.5054 55.7012 29.4571 55.7333 29.4168 55.7743L29.2969 55.8979Z" fill="white"/>
  <path d="M29.2473 30H30.7263C30.7761 30.0011 30.8246 30.0106 30.8668 30.0276C30.9091 30.0446 30.9436 30.0685 30.9669 30.0969C30.9903 30.1252 31.0016 30.157 30.9998 30.189C30.998 30.2211 30.9831 30.2523 30.9566 30.2795L30.2924 30.9011C30.2579 30.9317 30.2126 30.9567 30.1603 30.9738C30.1079 30.991 30.05 31 29.9913 31C29.9325 31 29.8746 30.991 29.8223 30.9738C29.7699 30.9567 29.7246 30.9317 29.6902 30.9011L29.0259 30.2509C29.0073 30.2253 28.9985 30.1972 29.0002 30.169C29.0019 30.1407 29.0142 30.1132 29.0358 30.0886C29.0575 30.064 29.088 30.0431 29.1248 30.0277C29.1616 30.0123 29.2037 30.0028 29.2473 30Z" fill="#6D4BBF"/>
  <path d="M29.8692 51.6053L24.9409 55.7001C24.776 55.8304 24.5674 55.8932 24.3577 55.8756C24.1479 55.858 23.9529 55.7613 23.8121 55.6054L13.2774 43.4281L13.1699 43.3045L17.8833 45.6485L29.8692 51.6053Z" fill="white" stroke="#6D4BBF" stroke-miterlimit="10"/>
  <path d="M47.0548 43.4445L46.8852 43.6423L36.4125 55.7455C36.2747 55.9063 36.0785 56.0061 35.867 56.0231C35.6554 56.0401 35.4457 55.9729 35.2838 55.8361L30.3555 51.7454L41.6096 46.1387L47.0548 43.4445Z" fill="white" stroke="#6D4BBF" stroke-miterlimit="10"/>
  <path d="M30.0011 61.1874C30.1884 61.1874 30.3402 61.0361 30.3402 60.8496C30.3402 60.663 30.1884 60.5117 30.0011 60.5117C29.8139 60.5117 29.6621 60.663 29.6621 60.8496C29.6621 61.0361 29.8139 61.1874 30.0011 61.1874Z" fill="white"/>
  <path d="M30.0011 63.6467C30.1884 63.6467 30.3402 63.4955 30.3402 63.3089C30.3402 63.1223 30.1884 62.9711 30.0011 62.9711C29.8139 62.9711 29.6621 63.1223 29.6621 63.3089C29.6621 63.4955 29.8139 63.6467 30.0011 63.6467Z" fill="white"/>
  <path d="M24.0722 66.1019C24.0722 66.1019 16.6508 67.6509 15.4642 66.6787C14.2776 65.7065 14.6703 64.3635 16.043 63.795C19.3961 62.3655 24.0722 66.1019 24.0722 66.1019Z" fill="#6D4BBF"/>
  <path d="M36.3477 66.0154C36.3477 66.0154 43.765 67.6632 44.9557 66.6787C46.1464 65.6941 45.7495 64.3635 44.3727 63.795C41.0197 62.3655 36.3477 66.0154 36.3477 66.0154Z" fill="#6D4BBF"/>
  <path d="M20.6491 67V57.3809C20.6491 56.557 20.8144 55.0039 19.173 55.0039C17.5316 55.0039 17.482 56.8371 17.6267 57.1131C17.6605 57.1785 17.7122 57.2329 17.7758 57.2701C17.8394 57.3072 17.9123 57.3256 17.986 57.323C18.0597 57.3204 18.1312 57.297 18.192 57.2554C18.2529 57.2139 18.3006 57.156 18.3296 57.0884C18.5281 56.763 18.2593 55.7866 19.1193 55.7866C19.9793 55.7866 19.847 56.6641 19.847 57.2862C19.847 57.4839 19.847 67 19.847 67H20.6491Z" fill="white"/>
  <path d="M17.3321 55.6136C17.8654 54.8927 18.2251 54.0564 18.0515 53.9287C17.8778 53.801 17.0302 54.0976 16.4969 54.8185C15.9635 55.5395 15.8808 56.5611 16.0545 56.6888C16.2281 56.8165 16.8028 56.3469 17.3321 55.6136Z" fill="white"/>
  <path d="M16.2658 55.7825C15.997 55.0822 16.5635 53.6651 17.5805 53.9864C18.4074 54.2418 19.4866 55.0945 19.4121 55.317C19.3377 55.5395 18.2834 55.2964 18.2586 55.3541C18.2338 55.4118 19.1723 55.9926 19.0318 56.178C18.8912 56.3634 18.0064 55.9638 17.9692 56.0379C17.932 56.1121 18.5315 56.7259 18.3826 56.8865C18.2338 57.0472 16.5387 56.4705 16.2658 55.7825Z" fill="#6D4BBF" stroke="white" stroke-width="0.5" stroke-miterlimit="10"/>
  <path d="M18.0551 53.9658C18.0551 53.9658 17.253 53.8587 16.6204 54.938C16.2573 55.4596 16.0824 56.0884 16.1243 56.7218L14.9211 56.903C14.9083 56.9054 14.8951 56.9046 14.8826 56.9006C14.8702 56.8966 14.8589 56.8896 14.8499 56.8802C14.8409 56.8708 14.8343 56.8593 14.8309 56.8467C14.8275 56.8342 14.8272 56.821 14.8302 56.8083C14.9731 55.997 15.2527 55.2156 15.6571 54.4972C16.0557 53.9526 16.6467 53.5787 17.3109 53.4509C17.3549 53.4412 17.4005 53.4417 17.4442 53.4525C17.488 53.4632 17.5286 53.4838 17.5631 53.5127L18.0551 53.9658Z" fill="white"/>
  <path d="M44.902 55.7825C45.1666 55.0822 44.6001 53.6651 43.5872 53.9864C42.7603 54.2418 41.6812 55.0945 41.7556 55.317C41.83 55.5395 42.8802 55.2964 42.9091 55.3541C42.9381 55.4118 41.9913 55.9926 42.1318 56.178C42.2724 56.3634 43.1572 55.9638 43.1985 56.0379C43.2399 56.1121 42.6321 56.7259 42.7851 56.8865C42.9381 57.0472 44.6539 56.4705 44.902 55.7825Z" fill="#6D4BBF" stroke="white" stroke-width="0.5" stroke-miterlimit="10"/>
  <path d="M43.1074 53.9658C43.1074 53.9658 43.9136 53.8587 44.5462 54.938C44.9098 55.467 45.0831 56.1028 45.0382 56.7424L46.2372 56.9236C46.2504 56.9269 46.2641 56.9267 46.2772 56.923C46.2902 56.9194 46.3021 56.9125 46.3116 56.903C46.3212 56.8935 46.3281 56.8816 46.3317 56.8686C46.3354 56.8557 46.3356 56.842 46.3323 56.8289C46.1874 56.0181 45.908 55.2371 45.5054 54.5178C45.1065 53.9735 44.5157 53.5997 43.8516 53.4715C43.8083 53.4618 43.7633 53.4624 43.7203 53.4731C43.6772 53.4838 43.6372 53.5044 43.6036 53.5333L43.1074 53.9658Z" fill="white"/>
  </g>
  <defs>
  <clipPath id="clip0_434_26">
  <rect width="89" height="27" fill="white" transform="translate(81 7)"/>
  </clipPath>
  <clipPath id="clip1_434_26">
  <rect width="173" height="31" fill="white" transform="translate(81 35)"/>
  </clipPath>
  <clipPath id="clip2_434_26">
  <rect width="60" height="67" fill="white"/>
  </clipPath>
  </defs>
  </svg>
  